<svg xmlns="http://www.w3.org/2000/svg" width="390" height="844" viewBox="0 0 390 844">
<rect width="390" height="844" fill="#f6f7f9"/>
<rect x="0" y="0" width="390" height="72" rx="0" fill="#ffffff" stroke="#ffffff" stroke-width="1"/>
<text x="20" y="42" font-size="22" font-weight="600" fill="#1f2329" text-anchor="start" font-family="Arial, PingFang SC, Microsoft YaHei, sans-serif">统计</text>
<text x="370" y="41" font-size="12" font-weight="500" fill="#6f7682" text-anchor="end" font-family="Arial, PingFang SC, Microsoft YaHei, sans-serif">本月</text>
<rect x="0" y="784" width="390" height="60" rx="0" fill="#fff" stroke="#e8ebef" stroke-width="1"/>
<circle cx="39" cy="801" r="6" fill="#8b929d"/>
<text x="39" y="829" font-size="11" font-weight="500" fill="#8b929d" text-anchor="middle" font-family="Arial, PingFang SC, Microsoft YaHei, sans-serif">首页</text>
<circle cx="117" cy="801" r="6" fill="#8b929d"/>
<text x="117" y="829" font-size="11" font-weight="500" fill="#8b929d" text-anchor="middle" font-family="Arial, PingFang SC, Microsoft YaHei, sans-serif">明细</text>
<circle cx="195" cy="801" r="6" fill="#8b929d"/>
<text x="195" y="829" font-size="11" font-weight="500" fill="#8b929d" text-anchor="middle" font-family="Arial, PingFang SC, Microsoft YaHei, sans-serif">记账</text>
<circle cx="273" cy="801" r="6" fill="#5b7cfa"/>
<text x="273" y="829" font-size="11" font-weight="500" fill="#5b7cfa" text-anchor="middle" font-family="Arial, PingFang SC, Microsoft YaHei, sans-serif">统计</text>
<circle cx="351" cy="801" r="6" fill="#8b929d"/>
<text x="351" y="829" font-size="11" font-weight="500" fill="#8b929d" text-anchor="middle" font-family="Arial, PingFang SC, Microsoft YaHei, sans-serif">我的</text>
<rect x="16" y="88" width="358" height="104" rx="16" fill="#fff" stroke="#e8ebef" stroke-width="1"/>
<text x="32" y="118" font-size="12" font-weight="400" fill="#6f7682" text-anchor="start" font-family="Arial, PingFang SC, Microsoft YaHei, sans-serif">收入</text>
<text x="32" y="151" font-size="20" font-weight="700" fill="#22a06b" text-anchor="start" font-family="Arial, PingFang SC, Microsoft YaHei, sans-serif">¥8,000</text>
<text x="149" y="118" font-size="12" font-weight="400" fill="#6f7682" text-anchor="start" font-family="Arial, PingFang SC, Microsoft YaHei, sans-serif">支出</text>
<text x="149" y="151" font-size="20" font-weight="700" fill="#e85d5d" text-anchor="start" font-family="Arial, PingFang SC, Microsoft YaHei, sans-serif">¥4,732</text>
<text x="266" y="118" font-size="12" font-weight="400" fill="#6f7682" text-anchor="start" font-family="Arial, PingFang SC, Microsoft YaHei, sans-serif">结余</text>
<text x="266" y="151" font-size="20" font-weight="700" fill="#5b7cfa" text-anchor="start" font-family="Arial, PingFang SC, Microsoft YaHei, sans-serif">¥3,268</text>
<text x="16" y="228" font-size="18" font-weight="600" fill="#1f2329" text-anchor="start" font-family="Arial, PingFang SC, Microsoft YaHei, sans-serif">收支趋势</text>
<rect x="16" y="244" width="358" height="202" rx="14" fill="#fff" stroke="#e8ebef" stroke-width="1"/>
<rect x="46" y="358" width="14" height="52" rx="4" fill="#e85d5d" stroke="#e85d5d" stroke-width="1"/>
<rect x="62" y="377" width="14" height="33" rx="4" fill="#22a06b" stroke="#22a06b" stroke-width="1"/>
<rect x="96" y="322" width="14" height="88" rx="4" fill="#e85d5d" stroke="#e85d5d" stroke-width="1"/>
<rect x="112" y="353" width="14" height="57" rx="4" fill="#22a06b" stroke="#22a06b" stroke-width="1"/>
<rect x="146" y="342" width="14" height="68" rx="4" fill="#e85d5d" stroke="#e85d5d" stroke-width="1"/>
<rect x="162" y="366" width="14" height="44" rx="4" fill="#22a06b" stroke="#22a06b" stroke-width="1"/>
<rect x="196" y="292" width="14" height="118" rx="4" fill="#e85d5d" stroke="#e85d5d" stroke-width="1"/>
<rect x="212" y="334" width="14" height="76" rx="4" fill="#22a06b" stroke="#22a06b" stroke-width="1"/>
<rect x="246" y="328" width="14" height="82" rx="4" fill="#e85d5d" stroke="#e85d5d" stroke-width="1"/>
<rect x="262" y="357" width="14" height="53" rx="4" fill="#22a06b" stroke="#22a06b" stroke-width="1"/>
<rect x="296" y="274" width="14" height="136" rx="4" fill="#e85d5d" stroke="#e85d5d" stroke-width="1"/>
<rect x="312" y="322" width="14" height="88" rx="4" fill="#22a06b" stroke="#22a06b" stroke-width="1"/>
<text x="16" y="486" font-size="18" font-weight="600" fill="#1f2329" text-anchor="start" font-family="Arial, PingFang SC, Microsoft YaHei, sans-serif">支出分类</text>
<rect x="16" y="502" width="358" height="250" rx="14" fill="#fff" stroke="#e8ebef" stroke-width="1"/>
<circle cx="108" cy="612" r="68" fill="#eef2ff"/>
<circle cx="108" cy="612" r="40" fill="#fff"/>
<text x="108" y="609" font-size="12" font-weight="400" fill="#6f7682" text-anchor="middle" font-family="Arial, PingFang SC, Microsoft YaHei, sans-serif">总支出</text>
<text x="108" y="630" font-size="16" font-weight="700" fill="#1f2329" text-anchor="middle" font-family="Arial, PingFang SC, Microsoft YaHei, sans-serif">¥4,732</text>
<circle cx="214" cy="550" r="5" fill="#5b7cfa"/>
<text x="228" y="555" font-size="13" font-weight="500" fill="#1f2329" text-anchor="start" font-family="Arial, PingFang SC, Microsoft YaHei, sans-serif">住房</text>
<text x="350" y="555" font-size="12" font-weight="400" fill="#6f7682" text-anchor="end" font-family="Arial, PingFang SC, Microsoft YaHei, sans-serif">¥2,200 · 46%</text>
<circle cx="214" cy="592" r="5" fill="#5b7cfa"/>
<text x="228" y="597" font-size="13" font-weight="500" fill="#1f2329" text-anchor="start" font-family="Arial, PingFang SC, Microsoft YaHei, sans-serif">餐饮</text>
<text x="350" y="597" font-size="12" font-weight="400" fill="#6f7682" text-anchor="end" font-family="Arial, PingFang SC, Microsoft YaHei, sans-serif">¥1,285 · 27%</text>
<circle cx="214" cy="634" r="5" fill="#5b7cfa"/>
<text x="228" y="639" font-size="13" font-weight="500" fill="#1f2329" text-anchor="start" font-family="Arial, PingFang SC, Microsoft YaHei, sans-serif">交通</text>
<text x="350" y="639" font-size="12" font-weight="400" fill="#6f7682" text-anchor="end" font-family="Arial, PingFang SC, Microsoft YaHei, sans-serif">¥560 · 12%</text>
<circle cx="214" cy="676" r="5" fill="#5b7cfa"/>
<text x="228" y="681" font-size="13" font-weight="500" fill="#1f2329" text-anchor="start" font-family="Arial, PingFang SC, Microsoft YaHei, sans-serif">其他</text>
<text x="350" y="681" font-size="12" font-weight="400" fill="#6f7682" text-anchor="end" font-family="Arial, PingFang SC, Microsoft YaHei, sans-serif">¥687 · 15%</text>
</svg>
